# Blender 3.6.1
# www.blender.org
mtllib LeftHand.mtl
o Cube
v -1.000000 -1.917033 1.000000
v -1.000000 1.000000 1.000000
v -0.807663 -1.904717 -0.960483
v -0.807663 0.517668 -0.960483
v 1.000000 -1.917033 1.000000
v 1.000000 1.000000 1.000000
v 0.853193 -1.904717 -0.960483
v 0.853193 0.517668 -0.960483
v -1.000000 -1.917033 1.436127
v -1.000000 0.973542 1.885331
v 1.000000 -1.917033 1.911789
v 1.000000 1.000000 1.911789
v -0.000000 0.973542 1.885331
v 0.000000 1.000000 1.000000
v -1.000000 1.664288 1.423865
v -1.000000 1.126093 2.031328
v -0.000000 1.126093 2.031328
v -0.000000 1.664288 1.423865
v 0.000000 -1.917033 1.911789
v 0.000000 -0.458517 1.911789
v 0.000000 -1.187775 1.911789
v 0.000000 0.270742 1.911789
v 1.000000 -0.458517 1.911789
v 1.000000 -1.187775 1.911789
v 1.000000 0.270742 1.911789
v 0.902951 -2.031789 4.084033
v 0.097049 -2.031789 4.084033
v 0.097049 -1.448883 4.159025
v 0.902951 -1.448883 4.159025
v 0.100082 -0.640023 5.226554
v 0.100082 -1.224417 5.187860
v 0.899918 -0.640023 5.226554
v 0.899918 -1.224417 5.187860
v 0.095848 -0.299633 5.747462
v 0.095848 0.288735 5.711550
v 0.904152 -0.299633 5.747462
v 0.904152 0.288735 5.711550
v 0.927099 1.201497 4.986841
v 0.072901 1.201497 4.986841
v 0.072901 0.599876 5.148387
v 0.927099 0.599876 5.148387
v -1.000000 1.828411 3.392333
v -1.000000 1.369737 3.150196
v -0.000000 1.369737 3.150196
v -0.000000 1.828411 3.392333
vn -0.9952 -0.0000 -0.0976
vn -0.0000 -0.0000 -1.0000
vn 0.9972 -0.0000 -0.0747
vn -0.0134 0.9998 0.0147
vn -0.0000 -1.0000 -0.0063
vn -0.0000 0.9710 -0.2389
vn -0.2400 -0.0708 0.9682
vn 1.0000 -0.0000 -0.0000
vn -1.0000 -0.0000 -0.0000
vn -0.0000 -1.0000 -0.0000
vn -0.0000 -0.9771 0.2128
vn -0.0000 -0.6914 0.7225
vn -0.0000 0.5379 -0.8430
vn 0.9997 0.0028 0.0229
vn 0.9997 0.0007 0.0251
vn -0.9995 -0.0009 0.0303
vn -0.0000 -0.9986 -0.0528
vn -0.0000 -0.1276 0.9918
vn -0.9990 -0.0025 0.0437
vn -0.0000 0.9933 0.1154
vn 0.9990 -0.0025 0.0437
vn -0.0000 -0.0661 0.9978
vn -0.0000 -0.9999 -0.0112
vn 0.9995 -0.0009 0.0303
vn -0.0000 0.9985 0.0547
vn -0.0000 0.0609 0.9981
vn -0.0000 1.0000 -0.0047
vn -0.9997 0.0007 0.0251
vn -0.0000 -0.9991 0.0414
vn -0.0000 0.2593 0.9658
vn -0.0000 -0.9949 0.1012
vn -0.9997 0.0033 0.0227
vn -0.0132 0.9975 -0.0694
vn -0.0000 -0.4668 0.8843
vn -0.0000 0.9965 -0.0831
vt 0.375000 0.000000
vt 0.625000 0.000000
vt 0.625000 0.250000
vt 0.375000 0.250000
vt 0.625000 0.500000
vt 0.375000 0.500000
vt 0.625000 0.750000
vt 0.375000 0.750000
vt 0.750000 0.750000
vt 0.625000 0.875000
vt 0.125000 0.500000
vt 0.125000 0.750000
vt 0.875000 0.500000
vt 0.875000 0.750000
vt 0.250000 0.750000
vt 0.343750 0.781250
vt 0.437500 0.812500
vt 0.531250 0.843750
vt 0.625000 1.000000
vt 0.562500 0.750000
vt 0.500000 0.750000
vt 0.437500 0.750000
s 0
f 1/1/1 2/2/1 4/3/1 3/4/1
f 3/4/2 4/3/2 8/5/2 7/6/2
f 7/6/3 8/5/3 6/7/3 5/8/3
f 6/7/4 14/9/4 13/10/4 12/7/4
f 3/11/5 7/6/5 5/8/5 1/12/5
f 8/5/6 4/13/6 2/14/6 14/9/6 6/7/6
f 9/12/7 19/15/7 21/16/7 20/17/7 22/18/7 13/10/7 10/19/7
f 5/8/8 6/7/8 12/7/8 25/20/8 23/21/8 24/22/8 11/8/8
f 2/2/9 1/1/9 9/1/9 10/2/9
f 1/12/10 5/8/10 11/8/10 19/15/10 9/12/10
f 2/2/9 10/2/9 16/2/9 15/2/9
f 16/19/11 17/10/11 44/10/11 43/19/11
f 10/19/12 13/10/12 17/10/12 16/19/12
f 14/9/13 2/14/13 15/14/13 18/9/13
f 13/10/8 14/9/8 18/9/8 17/10/8
f 25/20/14 12/7/14 38/7/14 41/20/14
f 23/21/15 25/20/15 37/20/15 36/21/15
f 20/17/16 21/16/16 31/16/16 30/17/16
f 19/15/17 11/8/17 26/8/17 27/15/17
f 26/8/18 29/22/18 28/16/18 27/15/18
f 21/16/19 19/15/19 27/15/19 28/16/19
f 24/22/20 21/16/20 28/16/20 29/22/20
f 11/8/21 24/22/21 29/22/21 26/8/21
f 31/16/22 33/22/22 32/21/22 30/17/22
f 21/16/23 24/22/23 33/22/23 31/16/23
f 24/22/24 23/21/24 32/21/24 33/22/24
f 23/21/25 20/17/25 30/17/25 32/21/25
f 34/17/26 36/21/26 37/20/26 35/18/26
f 25/20/27 22/18/27 35/18/27 37/20/27
f 22/18/28 20/17/28 34/17/28 35/18/28
f 20/17/29 23/21/29 36/21/29 34/17/29
f 38/7/30 39/10/30 40/18/30 41/20/30
f 22/18/31 25/20/31 41/20/31 40/18/31
f 13/10/32 22/18/32 40/18/32 39/10/32
f 12/7/33 13/10/33 39/10/33 38/7/33
f 42/2/34 43/2/34 44/10/34 45/9/34
f 15/2/9 16/2/9 43/2/9 42/2/9
f 18/9/35 15/14/35 42/14/35 45/9/35
f 17/10/8 18/9/8 45/9/8 44/10/8
